  <svg
      width="80px"
      height="80px"
      viewBox="0 0 80 80"
      fill="none"
      xmlns="http://www.w3.org/2000/svg"
    >
      <g>
        <g>
          <path
            fill="#334E5C"
            d="M79.74,45.69c0.05,0.54,0.03,1.3-0.44,1.7c-0.49,0.41-1.25,0.21-1.46,0.19
			c-11.63-1.5-23.26-3.01-34.89-4.51c-0.56-0.07-1.06-0.23-1.25-0.84c-0.19-0.61,0.14-1.01,0.57-1.38c2.55-2.23,5.08-4.48,7.64-6.69
			c0.47-0.4,0.53-0.57-0.03-0.95c-5.63-3.86-11.24-7.74-16.86-11.62c-1.38-0.95-1.48-1.52-0.52-2.91c1.37-1.98,2.74-3.96,4.12-5.94
			c0.73-1.05,1.42-1.18,2.48-0.44c5.71,3.94,11.42,7.88,17.12,11.84c0.48,0.33,0.63,0.32,0.84-0.26c1.17-3.21,2.38-6.4,3.58-9.6
			c0.2-0.53,0.46-0.98,1.1-1.02c0.59-0.03,0.91,0.34,1.17,0.83c2.2,4.13,4.41,8.26,6.61,12.38c0.5,0.94-0.02-0.12,6.98,13.02
			c1.33,2.5,2.43,4.57,3.16,5.96C79.68,45.52,79.71,45.6,79.74,45.69z"
          />
          <path
            fill="#34BAAB"
            d="M0.02,72.02c0.64,1.58,1.81,2.11,3.5,2.1c8.77-0.06,17.53-0.07,26.3,0c2.27,0.02,3.34-1.47,3.33-3.37
			c-0.06-8.82-0.03-17.64-0.03-26.46c0-2.23-1.01-3.26-3.23-3.26c-8.79,0-17.58,0.03-26.38-0.03c-1.69-0.01-2.86,0.52-3.49,2.11
			C0.02,52.76,0.02,62.39,0.02,72.02z"
          />
          <path
            fill="#FFFFFF"
            d="M21.8,60.31c0.6,0,1.2,0.02,1.79,0c1.47-0.06,2.65-1.31,2.63-2.76c-0.02-1.44-1.16-2.66-2.6-2.71
			c-1.2-0.04-2.39-0.04-3.59-0.01c-0.53,0.01-0.73-0.13-0.71-0.69c0.04-1.12,0.04-2.24,0-3.35c-0.04-1.38-0.75-2.35-1.93-2.73
			c-1.06-0.34-2.24,0-2.96,0.87c-0.47,0.57-0.65,1.23-0.65,1.96c0,1.07-0.03,2.13,0.01,3.2c0.02,0.56-0.11,0.79-0.72,0.75
			c-1.04-0.05-2.08-0.02-3.12-0.01c-1.79,0.01-3.04,1.13-3.05,2.73c-0.01,1.6,1.25,2.75,3.03,2.76c1.07,0,2.13,0.02,3.2-0.01
			c0.49-0.01,0.69,0.11,0.67,0.64c-0.04,1.09-0.02,2.18-0.01,3.28c0.02,1.75,1.14,2.96,2.73,2.97c1.61,0.02,2.76-1.15,2.81-2.9
			c0.03-1.07,0.05-2.14-0.01-3.2c-0.04-0.68,0.21-0.86,0.84-0.8C20.7,60.36,21.25,60.32,21.8,60.31
			C21.8,60.32,21.8,60.31,21.8,60.31z"
          />
        </g>
      </g>
    </svg>