<svg version="1.1" id="Camada_1" xmlns="http://www.w3.org/2000/svg" xmlns:xlink="http://www.w3.org/1999/xlink" x="0px" y="0px"
	 viewBox="0 0 512 512" enable-background="new 0 0 512 512" xml:space="preserve">
<path fill="#3A2C60" d="M199.02,477.29c-2.73,1.98-5.58,3.72-9.02,4.2c-10.18,1.54-17.46-4.46-18.2-15.22
	c-0.39-5.63-0.26-11.3-0.06-16.94c0.15-4.17-1.26-6.07-5.57-7.17c-38.45-9.86-63.05-34.03-73.89-72.13
	c-1.68-5.92-1.74-6.08-7.74-6.13c-5.33-0.04-10.66,0.14-15.98-0.08c-6.86-0.29-11.52-3.86-14.21-10.05
	c-0.71-1.64-1.61-3.37-0.33-5.18c1.5-11.19,6.86-15.91,18.07-15.94c2.31-0.01,4.62-0.1,6.93-0.16c1.39-1.12,3.05-1.1,4.71-1.17
	c6.5-0.28,6.4-0.31,7.91-6.82c2.4-10.35,6.13-20.19,11.82-29.23c1.76-2.8,3.69-5.48,6.29-7.59c12.24-15.64,27.6-27.05,46.27-33.99
	c3.14-2.75,7.11-3.45,10.98-4.29c3.32-0.72,4.55-2.54,4.67-5.91c0.17-4.55-1.22-9.29,1.22-13.64c1.1-9.18,6.04-14.78,13.88-15.75
	c7.06-0.87,13.11,3.48,16.4,11.78c0.13,5.78,1.39,11.49,1.21,17.29c-0.11,3.58,1.38,5.64,4.98,6.2c2.64,0.41,5.15,1.34,7.72,2.03
	c5,1.35,5.05,1.26,4.1-4.05c-0.99-5.55-2.45-10.99-2.62-16.71c-0.31-10.61,1.71-20.83,4.82-30.86c1.12-3.63,0.98-6.3-2.03-9.32
	c-6.18-6.21-8.34-14.54-6.36-22.62c2.3-9.39-0.4-18.07-0.9-27.08c-1.67-29.6,4.82-56.7,25.2-79.36
	c14.45-17.36,32.05-30.19,53.61-37.45c67.92-22.89,141.13,23.4,149.17,94.26c1.44,12.68,1,25.18-1.96,37.59
	c-0.46,1.94-0.44,3.8,0.16,5.84c3.46,11.64,2.69,22.37-7.57,30.64c-2.12,1.71-0.7,3.26-0.21,4.84c3.76,11.95,6.44,24.08,5.31,36.71
	c-0.82,9.11-3.63,17.86-5.35,26.81c-0.85,4.39-1.87,8.83-1.97,13.27c-0.25,10.51,1.08,19.78,9.7,28.28
	c21.99,21.68,32.63,48.96,33.43,79.72c0.57,22.09,0.2,44.2,0.15,66.3c-0.02,7.52-3.29,11.37-10.84,13.32
	c-17.34,2.73-34.8,1.02-52.2,1.33c-15.62,0.27-31.25,0.1-46.88,0.03c-3.56-0.02-7.12-0.17-8.68-4.28c-0.58-3.83,1.77-5.4,4.95-6.25
	c1.95-0.52,3.97-0.4,5.97-0.4c11.99-0.01,23.98,0.01,35.97-0.01c6.32-0.01,6.51-0.19,6.51-6.38c0.02-28.58,0.01-57.16,0.01-85.74
	c0-2.82,0.08-5.63,0.49-8.45c2.23-15.4,9.06-28.32,20.55-38.86c4.32-3.96,4.16-4.04-0.07-7.96c-5.14-4.75-10.44-9.28-16.42-12.97
	c-2.53-1.56-4.41-1.55-6.28,1.18c-11.98,17.45-29,27.43-49.18,32.64c-23.1,5.97-45.84,4.69-68.26-3.33
	c-1.38-0.49-2.66-1.4-4.58-1.17c-0.49,2.12,0.53,4.11,0.84,6.15c0.45,2.96,2.24,4.2,5.21,4.19c5.16-0.01,10.33-0.19,15.48,0.08
	c9.82,0.52,16.46,6.7,16.95,15.61c0.49,9.06-6.15,16.55-15.23,16.95c-5.82,0.26-11.66,0.14-17.48,0.04
	c-3.41-0.06-5.14,1.38-5.94,4.66c-5.14,20.98-15.9,38.58-32.27,52.72c-2.05,1.78-3,3.83-2.98,6.52c0.05,6.48,0.09,12.96-0.02,19.44
	c-0.06,3.45,1.48,4.72,4.81,4.71c6.99-0.04,13.99-0.23,20.98,0.09c5.55,0.26,7.18,2.5,6.41,8.09c-1.96,3.08-5.13,2.67-8.07,2.68
	c-20.26,0.06-40.52,0.01-60.77,0.04c-7.05,0.01-7.06,0.03-8.52,6.98C203.54,473.07,202.15,475.78,199.02,477.29z"/>
<path fill="#E7E8E9" d="M54.04,348.59c3.33,11.36,7.26,14.25,19.38,14.26c4.82,0,9.66,0.21,14.46-0.07c3.38-0.2,4.37,1.17,5.17,4.28
	c10.26,39.99,35.55,64.89,75.86,74.34c3.19,0.75,4.4,1.76,4.24,5.1c-0.28,5.79-0.09,11.61-0.07,17.42
	c0.03,11.37,5.45,16.98,16.92,17.58c-1.07,1.06-2.65,1.14-3.12,3.33c-1.9,8.88-8.48,13.47-16.92,12.4
	c-7.35-0.94-12.8-7.55-12.92-15.85c-0.08-5.64-0.29-11.31,0.07-16.93c0.28-4.41-1.06-6.36-5.63-7.29
	c-14.85-3.03-28.19-9.5-40.1-18.92c-17.72-14.02-28.75-32.28-34.12-53.99c-1.05-4.26-2.54-6.18-7.17-5.79
	c-5.12,0.43-10.31,0.1-15.47,0.1c-9.45-0.01-16.54-5.87-16.45-14.23C38.27,355.86,44.3,348.81,54.04,348.59z"/>
<path fill="#E7E8E9" d="M199.02,477.29c2.7-3.5,4.74-7.28,4.27-11.85c-0.35-3.43,1.16-4.09,4.3-4.07
	c22.47,0.12,44.93,0.06,67.4,0.08c2.54,0,5.09,0.19,6.42-2.65c0.68-3.22,3.35-2.72,5.56-2.84c2.47-0.13,4.99-0.29,7.31,0.94
	c2.41,2.32,5.31,3.02,8.62,2.99c10.58-0.09,21.17-0.05,31.75-0.02c2.89,0.01,5.61-0.33,7.87-2.35c4.4-2.15,8.81-2.67,13.23-0.04
	c0.69,4.05,3.69,3.99,6.84,3.99c31.62-0.04,63.23-0.03,94.85-0.03c1.83,0,3.65,0.07,5.48,0.11c-3.2,0.68-4.91,1.96-5.44,5.88
	c-0.65,4.81-5.38,10.04-12.92,10.02C362.71,477.22,280.87,477.3,199.02,477.29z"/>
<path fill="#E7E8E9" d="M239.31,61.41c-10.41,14.21-18.23,29.61-21.81,46.98c-3.19,15.48-3.42,30.95,0.14,46.41
	c0.56,2.43,0.7,4.71-0.05,7.28c-3.38,11.48-2.37,22.07,7.67,30.16c1.94,1.56,0.95,2.96,0.48,4.35c-2.76,8.21-4.64,16.6-5.57,25.2
	c-1.07,9.91,0.96,19.49,3.17,29.05c0.29,1.25,1.04,2.47,0.23,4.1c-5.93-1.89-11.86-3.93-18.04-4.93c-2.48-0.4-2.17-2.09-2.19-3.7
	c-0.07-6.8-0.11-13.61-0.15-20.41c1.93,2.32,0.29,5.18,1.38,8.23c1.38-7.93,2.82-15.33,5.4-22.44c0.61-1.68,0.05-2.56-1.25-3.71
	c-8.99-7.96-10.37-18.03-7.49-29.03c0.74-2.82,0.79-5.41,0.23-8.28c-6.9-35.46,1.19-67.21,23.9-95.31
	C229.52,70.22,233.72,65.13,239.31,61.41z"/>
<path fill="#E7E7E8" d="M109.77,287.7c-8.92,12.93-15.58,26.81-17.87,42.51c-0.26,1.81-1.07,2.58-2.93,2.5
	c-3.31-0.14-6.62-0.14-9.93-0.2c5.36-16.47,14.56-30.5,27.14-42.37C107.24,289.13,108.09,287.79,109.77,287.7z"/>
<path fill="#E7E8E8" d="M172.9,229.86c0.06,5.58,0.05,11.16,0.22,16.73c0.06,2.12-0.44,3.11-2.79,3.56
	c-4.82,0.92-9.53,2.34-14.29,3.55c1.42-2.08,0.97-4.45,0.99-6.73C157.1,236.73,162.65,230.73,172.9,229.86z"/>
<path fill="#6FBE95" d="M355.75,457.47c-4.17,0.17-8.39-0.73-12.5,0.59c-3.16-2.87-6.93-3.4-11.06-3.31
	c-8.62,0.18-17.26,0.18-25.88,0c-4.4-0.09-8.57,0.36-12.39,2.69c-4.16,0.54-8.6-1.5-12.51,1.36c0.16-4.23-2.28-5.39-6.03-5.35
	c-7.82,0.09-15.65-0.11-23.47,0.09c-3.1,0.08-3.99-0.88-3.91-3.94c0.21-7.8,0.12-15.62,0.04-23.42c-0.02-2.13,0.5-3.63,2.27-5.1
	c17.25-14.24,28.39-32.33,33.27-54.12c0.74-3.29,1.89-4.35,5.18-4.22c5.98,0.25,11.99,0.17,17.98,0.03
	c8.98-0.2,15.33-6.46,15.35-14.92c0.02-8.42-6.41-14.92-15.23-15.16c-5.99-0.16-11.99-0.22-17.98,0.04
	c-2.98,0.13-4.03-0.85-4.41-3.72c-0.47-3.59-1.5-7.1-2.34-10.86c1.63-0.74,2.74,0.61,3.96,1.07c36.26,13.62,71,11.94,103.6-10.37
	c7.07-4.84,12.81-11.16,16.99-18.66c1.48-2.66,2.72-2.55,4.97-1.17c7.98,4.9,15.22,10.7,21.92,17.22c2.04,1.98,1.95,2.98-0.33,4.88
	c-15.79,13.14-23.47,30.06-23.4,50.61c0.1,28.91-0.07,57.82,0.13,86.72c0.03,4.25-1.23,5.19-5.29,5.12
	c-13.98-0.25-27.97-0.07-41.95-0.11C359.57,453.46,356.63,453.61,355.75,457.47z"/>
<path fill="#FFFFFF" d="M337.99,102.17c15.24,18.36,36.11,26.43,58.44,31.83c14.84,3.59,18.84,8.77,18.98,24
	c0.14,16.32,0.02,32.48-6.41,48c-15,36.24-52.35,57.75-92.16,52.7c-37.67-4.78-69.17-36.61-73.62-74.66
	c-1.22-10.41-0.98-20.93-0.47-31.38c0.45-9.32,6.77-15.56,16.91-17.45c7.2-1.34,14.26-3.18,21.32-5.11
	c17.87-4.87,31.43-15.43,41.5-30.75c0.81-1.23,1.66-2.43,2.98-4.35c2.71,11.28,7.36,20.96,13.55,29.92c0.57,0.82,1.12,1.65,1.7,2.46
	c1.53,2.14,3.48,3.36,5.91,1.65c2.37-1.67,2.07-3.91,0.59-6.12c-3.96-5.92-8.04-11.79-10.26-18.67
	C336.38,103.09,336.1,102.09,337.99,102.17z"/>
<path fill="#EE759D" d="M181.04,452.86c0-3.82-0.22-7.66,0.06-11.47c0.32-4.38-1.53-6.32-5.8-6.94
	c-24.44-3.52-43.96-15.48-58.87-34.95c-8.63-11.26-14.22-23.98-16.36-38.02c-0.75-4.9-2.9-6.88-7.89-6.68
	c-7.15,0.29-14.32,0.14-21.48,0.05c-5.17-0.07-8.49-2.99-8.41-7.16c0.08-4.22,3.37-7,8.6-7.05c7.33-0.07,14.66-0.12,21.99,0.02
	c3.81,0.08,5.7-1.21,6.27-5.25c5.8-41.12,34.54-70.7,75.63-77.82c4.62-0.8,6.65-2.62,6.36-7.52c-0.38-6.46-0.15-12.96-0.07-19.44
	c0.07-5.19,2.9-8.49,7.12-8.55c4.16-0.06,7.07,3.27,7.14,8.43c0.08,6.32,0.27,12.65-0.05,18.95c-0.26,5.15,1.7,7.4,6.86,8.21
	c26.87,4.22,47.46,18.23,62.17,40.88c6.96,10.72,11.27,22.51,12.85,35.24c0.77,6.17,1.58,6.83,7.93,6.83c6.16,0.01,12.33,0,18.49,0
	c7.23,0.01,10.41,2.13,10.51,7.02c0.11,5.15-2.95,7.22-10.68,7.23c-6.66,0.01-13.33,0.05-19.99-0.01c-3.91-0.04-5.92,1.37-6.63,5.6
	c-7.15,42.37-41.28,69.89-75.96,74.08c-3.8,0.46-5.55,2.45-5.51,6.29c0.08,7.98,0.07,15.96,0,23.94c-0.05,5.88-2.53,8.73-7.27,8.61
	c-4.33-0.11-6.9-3.2-6.99-8.56C180.99,460.84,181.04,456.85,181.04,452.86z"/>
<path fill="#FAD5E4" d="M324.98,55.76c0,7.56-0.08,13.55,0.04,19.52c0.04,2.27-0.74,4.21-1.62,6.18
	c-10.52,23.63-27.99,38.72-53.79,43.6c-4.57,0.86-9.11,1.91-13.66,2.9c-9.93,2.18-16.45,8.21-19.96,17.64
	c-0.44,1.19-0.3,3.19-1.75,3.26c-3.07,0.15-5.79,1.4-8.67,1.93c-1.11,0.21-1.22-2.41-1.42-3.82c-3.21-22.39,0.1-43.82,10.85-63.71
	c18.05-33.39,46.32-52.1,84.03-56.8c4.67-0.58,6.41,0.36,6.12,5.48c-0.26,4.42-0.99,8.45-3.02,12.37
	c-9.18,17.72-21.44,31.99-41.56,37.67c-2.77,0.78-5.32,2.15-4.14,5.53c1.14,3.25,3.74,2.8,6.65,1.97
	c16.65-4.73,29.07-14.97,38.7-28.99C322.58,59.32,323.37,58.13,324.98,55.76z"/>
<path fill="#FAD5E4" d="M432.91,150.66c-7.22-0.24-10.79-3.84-13.34-10.37c-2.91-7.46-9.85-11.37-17.72-13.17
	c-12.82-2.93-25.4-6.57-37.01-12.94c-13.91-7.62-23.79-18.95-30.51-33.16c-0.85-1.81-1.43-3.64-1.39-5.72
	c0.11-6.13,0.04-12.26,0.04-18.91c2.17,1.05,2.89,2.94,4.01,4.37c5.19,6.57,11.18,12.28,18.17,16.91c2.48,1.64,5.24,4.03,7.73,0.5
	c2.55-3.61-0.68-5.27-3.18-6.96c-10.59-7.12-18.37-16.62-24.4-27.8c-2.62-4.86-2.34-9.87-2.34-14.99c0-3.29,2.5-2.05,3.96-1.95
	c14.09,1.01,27.46,4.76,40.05,11.13c40.39,20.44,63.29,64.47,56.85,109.23C433.63,148.28,433.15,149.68,432.91,150.66z"/>
<path fill="#FFFFFF" d="M417.86,402.59c0-14.62-0.18-29.24,0.05-43.85c0.25-16.14,6.91-29.43,18.78-40.31
	c3.2-2.94,5.07-3.28,7.88,0.72c13.48,19.18,20.71,40.4,21.1,63.75c0.36,21.42,0.02,42.85,0.17,64.28c0.03,4.75-1.82,6.47-6.54,6.39
	c-12.48-0.2-24.97-0.19-37.45,0.01c-3.31,0.05-4.13-0.93-4.1-4.15c0.16-15.61,0.07-31.23,0.07-46.84
	C417.84,402.59,417.85,402.59,417.86,402.59z"/>
<path fill="#FFFFFF" d="M328.98,319.74c-17.43-0.11-33.92-3.88-49.06-12.77c-1.27-0.75-2.74-1.28-3.45-2.73
	c-3.63-7.5-8.13-14.45-13.51-20.82c-1.81-2.15-0.01-2.3,1.4-2.86c8.69-3.48,17.7-5.83,27-6.63c4.9-0.42,7.01-2.42,6.41-7.23
	c-0.47-3.69,0.54-4.38,4.33-3.24c17.97,5.42,36.08,5.39,54.04-0.08c3.67-1.12,4.43-0.21,4.03,3.12c-0.6,5.06,1.7,7.01,6.78,7.46
	c10.47,0.93,20.45,4.05,30.3,7.72c4.44,1.66,3.55,3.52,1.6,6.34C388.8,302.5,374.48,310.7,358,315.66
	C348.56,318.49,338.88,319.95,328.98,319.74z"/>
<path fill="#FAD5E4" d="M423.3,287.13c-12.34-8.2-24.47-14.25-37.8-17.59c-4.35-1.09-8.77-1.85-13.14-2.85
	c-1.62-0.37-4.1,0.28-4.17-2.44c-0.06-2.47-0.95-5.09,2.54-6.69c8.22-3.76,15.52-9,22.15-15.14c13.13-12.16,22.12-26.85,27.01-44.04
	c0.39-1.36,0.23-3.37,2.07-3.49c2.01-0.13,1.87,2.01,2.35,3.31c6.36,17.18,7.32,34.52,2.3,52.29
	C423.37,262.01,420.97,273.78,423.3,287.13z"/>
<path fill="#FAD5E4" d="M227.85,230.01c0.2-13.14,2.77-23.06,6.09-32.84c0.38-1.11,0.61-2.44,2.11-2.34
	c1.49,0.11,1.52,1.59,1.81,2.63c7.64,27.25,24.2,47.25,49.36,60.09c3.11,1.59,2.48,3.81,2.61,6.18c0.15,2.83-2.07,2.62-3.75,2.86
	c-9.44,1.31-18.53,3.93-27.28,7.6c-2.58,1.08-4.14,0.73-6.1-1.13c-4.84-4.58-10.26-8.45-16.13-11.63c-2.2-1.19-3.38-2.67-3.87-5.26
	C230.88,246.57,227.69,237.22,227.85,230.01z"/>
<path fill="#FFFFFF" d="M240.12,428.72c0,7.88-0.1,14.84,0.05,21.8c0.05,2.48-0.87,3.04-3.17,3.02c-10.14-0.1-20.29-0.09-30.43-0.01
	c-2.21,0.02-3.19-0.46-3.31-2.99c-0.37-7.78-0.52-7.82,7.2-9.62C220.69,438.54,230.22,434.45,240.12,428.72z"/>
<path fill="#FDFDFD" d="M423.27,173.7c0-5.59,0.12-9.56-0.04-13.52c-0.15-3.78,1.71-3.84,4.25-2.44c1.26,0.69,2.43,1.74,3.31,2.89
	c4.52,5.88,4.38,17.02-0.15,22.83c-1.15,1.48-2.55,2.65-4.32,3.17c-2.25,0.67-3.91,0.45-3.62-2.69
	C423.07,180.01,423.15,176.04,423.27,173.7z"/>
<path fill="#FDFDFD" d="M234.68,173.56c0.12,2.46,0.16,6.27,0.54,10.05c0.38,3.81-1.58,3.88-4.15,2.75
	c-1.31-0.58-2.56-1.56-3.5-2.65c-4.96-5.79-4.94-17.79-0.04-23.6c1.53-1.81,3.43-3.68,5.87-2.94c2.55,0.77,1.09,3.4,1.21,5.16
	C234.84,165.61,234.68,168.93,234.68,173.56z"/>
<path fill="#E6E4EA" d="M337.99,102.17c-0.86,0.43-0.9,1.28-1.05,2.07c-1.19-1.25-1.39-2.89-1.85-4.54
	C337.12,99.43,337.28,101.12,337.99,102.17z"/>
<path fill="#3A2D61" d="M293.92,457.45c0.95-2.96,3.03-4.02,6.08-4c12.47,0.08,24.94,0.06,37.41,0.01c3.26-0.01,5.53,1,5.83,4.6
	c-0.77,2.68-2.68,3.41-5.29,3.4c-12.89-0.06-25.79-0.08-38.68,0.01C296.28,461.5,294.63,460.21,293.92,457.45z"/>
<path fill="#3B2D60" d="M343.14,188.71c-0.08,8.99-4.63,14.81-12.46,15.93c-6.46,0.93-12.92-3.18-15.13-9.63
	c-1.22-3.55-0.74-7.23-0.64-10.85c0.06-2.12,1.46-3.33,3.56-3.44c2.38-0.12,3.82,1.28,4.12,3.48c0.3,2.12,0.1,4.31,0.21,6.46
	c0.2,3.74,2.38,5.97,5.97,6.06c3.85,0.1,6.15-2.15,6.38-6.14c0.1-1.65,0.02-3.32,0.07-4.98c0.07-2.82,1.09-5.04,4.32-4.86
	c2.97,0.17,3.7,2.36,3.61,4.97C343.11,186.72,343.14,187.72,343.14,188.71z"/>
<path fill="#EE769E" d="M328.08,228.36c-6.99-0.24-13.9-2.97-19.37-9c-1.89-2.08-2.22-4.14-0.13-6.1c1.92-1.81,3.78-1.23,5.73,0.4
	c10.74,8.99,18.92,9.03,29.19,0.13c2.1-1.82,4.07-2.39,6.1-0.31c2.08,2.13,1.24,4.15-0.57,6.11
	C343.65,225.43,336.96,228.25,328.08,228.36z"/>
<path fill="#3B2D60" d="M369.02,169.6c-4.89,0.1-8.95-3.76-9.1-8.67c-0.15-4.96,3.57-8.96,8.53-9.14c5.16-0.2,9.42,3.78,9.44,8.82
	C377.9,165.4,373.85,169.5,369.02,169.6z"/>
<path fill="#3B2D60" d="M298.03,160.85c-0.11,4.9-4.14,8.81-9.02,8.75c-4.83-0.06-8.91-4.12-8.94-8.92
	c-0.04-5.02,4.22-9.06,9.36-8.9C294.39,151.93,298.14,155.89,298.03,160.85z"/>
<path fill="#3B2D61" d="M279.26,146.09c-3.18,0.22-5.06-0.58-5.42-3.25c-0.35-2.62,1.18-4.08,3.58-4.54
	c5.55-1.05,11.11-2.01,16.68-2.91c2.44-0.4,4.37,0.53,4.89,3.06c0.52,2.52-0.75,4.19-3.29,4.67
	C290,144.2,284.27,145.19,279.26,146.09z"/>
<path fill="#3B2D61" d="M378.13,145.99c-4.67-0.84-10.06-1.82-15.45-2.78c-2.73-0.49-4.31-2.04-3.7-4.83
	c0.61-2.8,2.8-3.39,5.42-2.92c5.23,0.94,10.47,1.79,15.7,2.74c2.57,0.47,4.44,1.79,3.99,4.7
	C383.65,145.85,381.45,146.4,378.13,145.99z"/>
<path fill="#FAD6E4" d="M277.73,189.04c-3.96-0.19-7.96-1.36-8.14-5.23c-0.18-3.95,3.75-4.88,7.36-4.82
	c3.67,0.06,7.71,0.56,7.82,4.96C284.88,188.11,280.92,188.68,277.73,189.04z"/>
<path fill="#FAD6E4" d="M380.5,177.94c3.7,0.09,7.77,0.43,7.71,4.68c-0.07,4.27-4.33,5.28-7.85,5.19c-3.2-0.08-7.26-0.61-7.29-5.06
	C373.03,177.64,377.3,178.2,380.5,177.94z"/>
<path fill="#3A2C60" d="M261.39,345.87c0.04,40.43-32.91,73.37-73.28,73.26c-40.12-0.11-73.04-33.03-73.07-73.07
	c-0.03-40.3,33.02-73.27,73.38-73.21C228.64,272.91,261.36,305.65,261.39,345.87z"/>
<path fill="#3C2D61" d="M260.1,95.26c-3.75,0.44-5.94-0.01-6.37-3.03c-0.36-2.6,1.14-3.98,3.56-4.51c3.71-0.81,7.41-1.68,11.15-2.36
	c2.41-0.44,4.35,0.45,4.87,3.02c0.52,2.53-0.81,4.16-3.22,4.74C266.4,94.01,262.66,94.72,260.1,95.26z"/>
<path fill="#3B2D60" d="M400.87,95.11c-11.24-2.52-21.74-5.52-31.79-9.93c-2.2-0.96-3.6-2.64-2.52-5.13
	c1.1-2.55,3.11-3.17,5.73-2.06c9.49,4.01,19.32,6.94,29.35,9.22c2.45,0.56,3.86,2.04,3.43,4.61
	C404.64,94.41,402.77,95.25,400.87,95.11z"/>
<path fill="#FAD5E4" d="M208.94,407.48c-30.59,12.26-69.04-5.31-81.31-37.8c-9.46-25.06-5.21-48.34,13.1-67.95
	c18.31-19.6,41.17-25.06,67.04-17.96c0.45,0.12,0.85,0.47,1.27,0.7c1.21,1.27,3.1,1.22,4.41,2.3
	c23.32,14.71,33.99,35.89,32.93,63.31c-0.75,19.21-9.02,34.72-22.55,47.83c-3.25,3.15-7.06,5.53-11.08,7.56
	C211.38,405.98,210.08,406.57,208.94,407.48z"/>
<path fill="#FFFFFF" d="M211.94,405.47c10.09-6.89,18.89-14.95,24.71-25.94c12.07-22.79,11.74-45.44-0.42-68.05
	c-5.54-10.31-14.42-17.49-23.26-24.71c0.42-0.43,0.88-0.48,1.38-0.17c21.8,9.6,34.62,26.44,38.37,49.62
	c4.65,28.68-10.5,56.2-36.78,68.68c-0.59,0.28-1.24,0.41-1.86,0.61C213.36,406.02,212.65,406.02,211.94,405.47z"/>
<path fill="#F9F4F7" d="M214.36,286.6c-0.46,0.06-0.92,0.11-1.38,0.17c-1.63-0.22-3.12-0.66-3.94-2.28
	C210.97,284.78,212.82,285.31,214.36,286.6z"/>
<path fill="#E9E2EA" d="M211.94,405.47c0.72,0.01,1.43,0.02,2.15,0.03c-1.5,1.22-3.23,1.85-5.15,1.98
	C209.54,406.22,210.49,405.47,211.94,405.47z"/>
<path fill="#3A2C60" d="M180.33,376.51c-4.5,0-8.99-0.04-13.49,0.02c-4.13,0.05-6.75,2.04-6.7,6.32c0.05,4.05,2.62,5.87,6.54,5.91
	c3.83,0.03,7.66,0.13,11.49-0.02c2.49-0.1,3.63,0.56,3.54,3.31c-0.15,4.31,1.38,7.74,6.4,7.64c4.7-0.1,6.16-3.39,6.06-7.5
	c-0.06-2.37,0.52-3.31,3.15-3.82c13-2.53,21.34-13.48,19.96-25.68c-1.41-12.41-11.55-20.99-24.9-21.08
	c-3.16-0.02-6.33,0.08-9.49-0.03c-6.62-0.23-11.26-4.59-11.5-10.71c-0.24-6.13,3.92-11.11,10.58-11.55
	c7.46-0.49,14.97-0.22,22.46-0.29c2.17-0.02,4.33-0.04,6.05-1.73c3.14-3.09,2.31-8.11-1.79-9.9c-1.17-0.51-2.57-0.63-3.87-0.68
	c-3.16-0.11-6.85,0.94-9.35-0.36c-3.08-1.59-0.62-5.7-1.32-8.64c-0.78-3.31-2.64-5.55-6.04-5.62c-3.66-0.08-6.65,2.3-6.18,5.74
	c0.97,7.13-2.42,9.07-8.58,11.1c-10.5,3.45-15.86,14.52-13.99,25.77c1.63,9.85,10.71,18.15,21.03,18.98
	c3.97,0.32,7.99,0.15,11.98,0.27c7.62,0.23,12.61,4.72,12.62,11.27c0.01,6.43-5.25,11.14-12.66,11.26
	C188.32,376.56,184.33,376.51,180.33,376.51z"/>
</svg>
