    <svg
      width="16px"
      height="16px"
      viewBox="0 0 16 16"
      fill="none"
      xmlns="http://www.w3.org/2000/svg"
    >
      <g>
        <g>
          <path
            fill="#334e5c"
            d="M0.7,4.21c0.48-0.04,0.71,0.33,0.99,0.6c1.85,1.84,3.73,3.66,5.52,5.56c0.65,0.69,0.98,0.59,1.58-0.04
			c1.8-1.89,3.68-3.71,5.52-5.56c0.4-0.4,0.85-0.91,1.42-0.38c0.57,0.54,0.11,1-0.3,1.41c-2.19,2.19-4.39,4.36-6.56,6.57
			c-0.67,0.69-1.17,0.62-1.8-0.03C4.9,10.14,2.71,7.96,0.51,5.78C0.18,5.46-0.12,5.13,0.05,4.64C0.15,4.36,0.38,4.19,0.7,4.21z"
          />
        </g>
      </g>
    </svg>