<svg version="1.1" id="Camada_1" xmlns="http://www.w3.org/2000/svg" xmlns:xlink="http://www.w3.org/1999/xlink" x="0px" y="0px"
	 viewBox="0 0 40 40" enable-background="new 0 0 40 40" xml:space="preserve">
<path fill="#34B9AA" d="M6.69,19.88c0-4.51,0.05-9.02-0.02-13.53C6.64,4.63,7.26,3.96,9,4c3.47,0.09,6.95,0,10.42,0.04
	c2.29,0.03,3.21,0.95,3.23,3.25c0.04,3.47-0.05,6.95,0.03,10.42c0.04,1.76-0.69,2.35-2.38,2.31c-2.96-0.08-5.92,0.07-8.87-0.06
	C9.84,19.9,9.24,20.26,9.31,22c0.14,3.77,0.06,7.54,0.03,11.31c-0.01,1.05,0.35,2.53-1.28,2.58C6.4,35.94,6.7,34.47,6.7,33.41
	C6.68,28.9,6.69,24.39,6.69,19.88z"/>
<path fill="#34B9AA" d="M36.27,9.36c-3.16,6.23-3.33,12.27,0.09,18.64c-1.39,0-2.22,0-3.06,0c-4.65,0-9.31,0.03-13.96-0.01
	c-2.64-0.02-4.18-2.31-3.31-4.72c0.26-0.72,0.76-0.58,1.24-0.58c1.4-0.02,2.81,0,4.21-0.01c3.02-0.02,3.84-0.8,3.85-3.76
	c0.01-2.73,0.02-5.47-0.01-8.2c-0.01-0.86,0.13-1.38,1.19-1.37C29.59,9.39,32.68,9.36,36.27,9.36z"/>
</svg>
