    <svg x="0px" y="0px" width="40" height="40" viewBox="0 0 40 40" fill="none">
      <path
        fill="#334E5C"
        d="M2.01,25.69c0.24-0.67,0.65-1.13,1.4-1.19c0.91-0.07,1.6,0.62,1.6,1.6c0.01,1.41,0,2.81,0,4.22
	c0.01,2.36,1.53,4.19,3.85,4.61c0.27,0.05,0.56,0.05,0.84,0.05c6.86,0,13.73,0,20.59,0c2.72,0,4.7-1.98,4.7-4.69
	c0-6.86,0-13.73,0-20.59c0-2.72-1.98-4.69-4.7-4.69c-6.86,0-13.73,0-20.59,0c-2.7,0-4.68,1.97-4.69,4.67c0,1.42,0.01,2.83,0,4.25
	C5,15.08,3.95,15.8,2.93,15.39c-0.5-0.2-0.74-0.61-0.92-1.08c0-1.87,0-3.75,0-5.62C2.07,7.9,2.27,7.15,2.6,6.43
	c0.62-1.37,1.57-2.45,2.82-3.28c1.01-0.67,2.12-1.06,3.34-1.15c0.12,0,0.23,0,0.35,0c0.14,0.06,0.28,0.06,0.42,0
	c6.98,0,13.96,0,20.94,0c0.14,0.06,0.28,0.06,0.42,0c0.09,0,0.19,0,0.28,0c0.79,0.04,1.55,0.2,2.26,0.53
	c2.35,1.08,3.86,2.86,4.45,5.39c0.06,0.27,0.03,0.55,0.1,0.83c0,7.52,0,15.04,0,22.56c-0.08,0.79-0.27,1.56-0.6,2.29
	c-0.67,1.44-1.69,2.57-3.04,3.4c-0.97,0.6-2.03,0.93-3.17,0.99c-0.12,0-0.23,0-0.35,0c-0.12-0.06-0.23-0.06-0.35,0
	c-6.98,0-13.96,0-20.94,0c-0.14-0.06-0.28-0.06-0.42,0c-0.14,0-0.28,0-0.42,0c-0.81-0.08-1.58-0.27-2.32-0.62
	c-1.41-0.67-2.53-1.67-3.35-3c-0.57-0.94-0.93-1.96-1.01-3.06C2.01,29.44,2.01,27.57,2.01,25.69z"
      />
      <path
        fill="#131313"
        d="M9.53,2.01c-0.14,0.1-0.28,0.11-0.42,0C9.25,2.01,9.39,2.01,9.53,2.01z"
      />
      <path
        fill="#131313"
        d="M30.89,2.01c-0.14,0.11-0.28,0.1-0.42,0C30.61,2.01,30.75,2.01,30.89,2.01z"
      />
      <path
        fill="#151515"
        d="M9.11,37.99c0.14-0.11,0.28-0.1,0.42,0C9.39,37.99,9.25,37.99,9.11,37.99z"
      />
      <path
        fill="#151515"
        d="M30.47,37.99c0.12-0.1,0.23-0.11,0.35,0C30.71,37.99,30.59,37.99,30.47,37.99z"
      />
      <path
        fill="#334E5C"
        d="M27.71,18.46c-2.15-2.15-4.23-4.23-6.31-6.3c-0.56-0.56-0.67-1.31-0.29-1.92c0.51-0.81,1.6-0.96,2.3-0.29
	c0.64,0.61,1.26,1.25,1.89,1.88c1.62,1.62,3.25,3.25,4.87,4.87c1.93,1.93,1.93,4.67,0.01,6.6c-2.23,2.24-4.47,4.47-6.71,6.71
	c-0.43,0.43-0.94,0.61-1.53,0.45c-0.56-0.16-0.93-0.54-1.06-1.11c-0.13-0.57,0.06-1.05,0.47-1.46c2.04-2.03,4.08-4.07,6.11-6.11
	c0.08-0.08,0.18-0.15,0.27-0.22c-0.1-0.14-0.2-0.09-0.28-0.09c-6.43,0.01-12.86,0.01-19.29,0.04c-1.16,0.01-1.9-1.01-1.58-1.97
	c0.21-0.64,0.76-1.02,1.51-1.03c1.85-0.01,3.7-0.02,5.55-0.02c4.56-0.01,9.11-0.02,13.67-0.03C27.41,18.46,27.51,18.46,27.71,18.46z
	"
      />
    </svg>