    <svg x="0px" y="0px" width="40" height="40" viewBox="0 0 40 40" fill="none">
      <g>
        <g>
          <path
            fill="#34BAAB"
            d="M14.43,6.14c-0.84,0.43-1.69,0.86-2.53,1.29c-0.16,0.08-0.32,0.05-0.48,0.05c-2.34,0-4.67-0.01-7.01,0.01
			C3.18,7.5,2.28,8.11,1.76,9.21c-0.52,1.09-0.39,2.15,0.34,3.11c0.59,0.78,1.43,1.15,2.4,1.15c2.29,0.01,4.58,0,6.87,0
			c7.26,0,14.52,0,21.78,0c2.73,0,4.88,1.8,5.38,4.47c0.15,0.78,0.05,1.57,0.07,2.36c0.01,0.3-0.19,0.24-0.36,0.24
			c-1.49,0-2.98-0.01-4.46,0c-2.4,0.02-4.5,1.39-5.33,3.58c-1.33,3.46,0.46,7.27,4.17,8.04c0.42,0.09,0.85,0.12,1.29,0.12
			c1.43,0,2.86,0.01,4.29-0.01c0.32,0,0.44,0.06,0.43,0.41c-0.03,1.08,0.05,2.17-0.36,3.21c-0.79,2.05-2.77,3.45-4.96,3.45
			c-9.33,0.01-18.66,0.01-27.99,0c-2.89,0-5.3-2.4-5.3-5.28c-0.01-7.86-0.01-15.71,0-23.57c0-2.5,1.89-4.42,4.39-4.45
			c3.33-0.03,6.66-0.01,10-0.01C14.41,6.08,14.42,6.11,14.43,6.14z"
          />
          <path
            fill="#34BAAB"
            d="M34.9,12.26c-1.11-0.22-2.19-0.26-3.28-0.21c-0.25,0.01-0.27-0.2-0.34-0.34
			c-1.08-2.11-2.16-4.23-3.23-6.35c-0.39-0.76-0.64-0.84-1.41-0.45c-4.52,2.31-9.05,4.61-13.57,6.92c-0.3,0.15-0.59,0.23-0.93,0.23
			c-1.99-0.01-3.98-0.01-5.99-0.01c0.04-0.17,0.2-0.18,0.3-0.24c7.21-3.68,14.41-7.35,21.62-11.02c0.58-0.29,0.91-0.21,1.18,0.32
			c1.87,3.66,3.73,7.33,5.6,10.99C34.87,12.12,34.88,12.15,34.9,12.26z"
          />
          <path
            fill="#34BAAB"
            d="M40.01,26.4c0,1.2,0,2.41,0,3.61c0,0.51-0.25,0.83-0.73,0.83c-1.96,0-3.93,0.11-5.89-0.04
			c-2.19-0.17-3.58-1.59-3.89-3.79c-0.33-2.36,1.12-4.48,3.37-4.93c0.35-0.07,0.71-0.1,1.06-0.1c1.7-0.01,3.39-0.01,5.09,0
			c0.76,0,0.98,0.23,0.99,0.98C40.01,24.11,40.01,25.25,40.01,26.4z"
          />
          <path
            fill="#34BAAB"
            d="M29.84,12.03c-4.68,0-9.3,0-14.05,0c0.62-0.32,1.14-0.59,1.66-0.85c3.04-1.55,6.09-3.1,9.12-4.66
			c0.29-0.15,0.41-0.11,0.55,0.18C28.02,8.46,28.92,10.21,29.84,12.03z"
          />
          <path
            fill="#FCFDFD"
            d="M35.46,26.43c-0.01,0.39-0.33,0.7-0.72,0.69c-0.38-0.01-0.7-0.33-0.71-0.71c0-0.4,0.35-0.73,0.75-0.71
			C35.17,25.72,35.47,26.04,35.46,26.43z"
          />
        </g>
      </g>
    </svg>